<svg width="47" height="47" viewBox="0 0 47 47" fill="none" xmlns="http://www.w3.org/2000/svg">
<g clip-path="url(#clip0_33_10677)">
<mask id="mask0_33_10677" style="mask-type:luminance" maskUnits="userSpaceOnUse" x="0" y="0" width="47" height="47">
<path d="M46.2559 0H0V46.2559H46.2559V0Z" fill="white"/>
</mask>
<g mask="url(#mask0_33_10677)">
<path d="M46.2559 0H0V46.2559H46.2559V0Z" fill="#FF0032"/>
<path d="M30.8149 3.55737V5.68615H35.4699V14.2297H38.0718V5.68615H42.7172V3.55737H30.8149Z" fill="white"/>
<path d="M14.078 3.55737L10.6719 10.6155L7.27539 3.55737H3.55713V14.2297H6.16842V6.59443L9.48931 13.047H11.8641L15.1849 6.59443V14.2297H17.7868V3.55737H14.078Z" fill="white"/>
<path d="M40.1151 39.141C40.0489 39.5668 39.8786 39.9168 39.6042 40.1817C39.3488 40.4277 38.9987 40.6075 38.5635 40.7116C38.1377 40.8062 37.5039 40.863 36.8416 40.863C36.1509 40.863 35.5454 40.7778 35.025 40.598C34.5235 40.4277 34.1261 40.125 33.8518 39.7087C33.5679 39.2924 33.426 38.6869 33.426 37.9016V36.8136C33.426 36.0377 33.5679 35.4322 33.8518 35.0065C34.1356 34.5901 34.5235 34.2875 35.025 34.1172C35.5359 33.9374 36.1509 33.8523 36.8416 33.8523C37.5039 33.8523 38.1377 33.909 38.5635 34.0036C38.9987 34.1077 39.3488 34.2779 39.6042 34.5334C39.8786 34.7983 40.0489 35.1484 40.1151 35.5741H42.7169C42.6412 34.6942 42.348 33.9469 41.8276 33.3413C41.3546 32.7926 40.6923 32.3952 39.8691 32.1492C39.0744 31.9127 38.0242 31.7897 36.8416 31.7897C35.5927 31.7897 34.5141 31.9694 33.6247 32.3195C32.726 32.679 32.0258 33.2751 31.5433 34.0983C31.0797 34.8835 30.8431 35.9431 30.8242 37.2299V37.3529L30.9661 37.3623L30.8242 37.3718V37.3813V37.4948C30.8431 38.7816 31.0797 39.8411 31.5433 40.6264C32.0258 41.4496 32.726 42.0456 33.6247 42.4052C34.5141 42.7553 35.5927 42.935 36.8416 42.935C38.0242 42.935 39.0744 42.812 39.8691 42.5755C40.6923 42.3295 41.3451 41.9321 41.8276 41.3833C42.348 40.7873 42.6507 40.0304 42.7169 39.1505H40.1151V39.141Z" fill="white"/>
</g>
</g>
<defs>
<clipPath id="clip0_33_10677">
<rect width="46.2559" height="46.2559" fill="white"/>
</clipPath>
</defs>
</svg>
